<?xml version="1.0" ?>
<!DOCTYPE svg  PUBLIC '-//W3C//DTD SVG 1.1//EN'  'http://www.w3.org/Graphics/SVG/1.1/DTD/svg11.dtd'>
<!-- Uploaded to: SVG Repo, www.svgrepo.com, Generator: SVG Repo Mixer Tools -->
<svg width="800px" height="800px" viewBox="0 0 32 32" enable-background="new 0 0 32 32" version="1.1" xml:space="preserve" xmlns="http://www.w3.org/2000/svg" xmlns:xlink="http://www.w3.org/1999/xlink">
<g id="Files_Folder40"/>
<g id="Files_Folder39"/>
<g id="Files_Folder38"/>
<g id="Files_Folder37"/>
<g id="Files_Folder36"/>
<g id="Files_Folder35"/>
<g id="Files_Folder34"/>
<g id="Files_Folder33"/>
<g id="Files_Folder32"/>
<g id="Files_Folder31"/>
<g id="Files_Folder30"/>
<g id="Files_Folder29"/>
<g id="Files_Folder28"/>
<g id="Files_Folder27"/>
<g id="Files_Folder26"/>
<g id="Files_Folder25"/>
<g id="Files_Folder24"/>
<g id="Files_Folder23"/>
<g id="Files_Folder22"/>
<g id="Files_Folder21"/>
<g id="Files_Folder20"/>
<g id="Files_Folder19"/>
<g id="Files_Folder18"/>
<g id="Files_Folder17"/>
<g id="Files_Folder16"/>
<g id="Files_Folder15"/>
<g id="Files_Folder14"/>
<g id="Files_Folder13"/>
<g id="Files_Folder12"/>
<g id="Files_Folder11"/>
<g id="Files_Folder10"/>
<g id="Files_Folder09"/>
<g id="Files_Folder08"/>
<g id="Files_Folder07"/>
<g id="Files_Folder06"/>
<g id="Files_Folder05"/>
<g id="Files_Folder04"/>
<g id="Files_Folder03"/>
<g id="Files_Folder02">
<path d="M26.76,8.35L26.46,8L21,1.63l-0.24-0.28C20.57,1.13,20.29,1,20,1h-1H6C5.45,1,5,1.45,5,2v28   c0,0.55,0.45,1,1,1h20c0.55,0,1-0.45,1-1V10V9C27,8.76,26.91,8.53,26.76,8.35z" fill="#FFC10A"/>
<g>
<path d="M27,9v1h-7c-0.55,0-1-0.45-1-1V1h1c0.29,0,0.57,0.13,0.76,0.35L21,1.63L26.46,8l0.3,0.35    C26.91,8.53,27,8.76,27,9z" fill="#FE9803"/>
</g>
<path d="M21.6245,17.2192l-5-4c-0.045-0.0359-0.0977-0.0538-0.1467-0.0809   c-0.0404-0.0225-0.0762-0.0492-0.1198-0.066c-0.1134-0.0438-0.2313-0.07-0.351-0.0709C16.0046,13.0015,16.0025,13,16,13   s-0.0046,0.0015-0.0071,0.0015c-0.1198,0.0009-0.2375,0.0271-0.351,0.0709c-0.0437,0.0168-0.0795,0.0436-0.1199,0.0662   c-0.049,0.0271-0.1016,0.0449-0.1465,0.0807l-5,4c-0.4316,0.3447-0.5015,0.9741-0.1563,1.4053   c0.3442,0.4312,0.9741,0.5005,1.4053,0.1563L15,16.0807V26c0,0.5522,0.4478,1,1,1s1-0.4478,1-1v-9.9193l3.3755,2.7001   C20.5596,18.9282,20.7803,19,20.9995,19c0.293,0,0.584-0.1284,0.7813-0.3755C22.126,18.1934,22.0562,17.564,21.6245,17.2192z" fill="#FE9803"/>
</g>
<g id="Files_Folder01"/>
</svg>